<svg xmlns="http://www.w3.org/2000/svg" viewBox="0 0 526.93 144">
  <defs>
    <style>
      .a {
        fill: #fff;
      }

      .b {
        fill: #c1282d;
      }
    </style>
  </defs>
  <g>
    <path class="a" d="M171.77,48.12h22.68V70.27H170.12a25.52,25.52,0,0,1-8.53-1.38,21.15,21.15,0,0,1-6.76-3.79,17.46,17.46,0,0,1-4.45-5.72,16.12,16.12,0,0,1-1.62-7.18,15.49,15.49,0,0,1,1.62-7.08,16.79,16.79,0,0,1,4.45-5.51,20.34,20.34,0,0,1,6.76-3.55,28,28,0,0,1,8.53-1.25h25.39L188.41,44H170.12a13.09,13.09,0,0,0-4.13.63,10.34,10.34,0,0,0-3.31,1.8,8.58,8.58,0,0,0-2.2,2.73,7.57,7.57,0,0,0-.8,3.47,7.61,7.61,0,0,0,2.94,6.15,10.25,10.25,0,0,0,3.32,1.72,13.53,13.53,0,0,0,4.18.61h13.41V56H165.19Z"/>
    <path class="a" d="M241.94,61.15l-7.05,9.12H200.76V34.81h41.07L234.73,44H211.78v4.24h28.09l-6.31,8H211.78v4.82Z"/>
    <path class="a" d="M258.9,70.27l6.62-9.12h12.22c1.15,0,2.15,0,3,.11-.49-.64-1.07-1.44-1.72-2.41s-1.28-1.88-1.88-2.73l-6.36-9.38L254.13,70.27h-13l22.74-32.06a12.09,12.09,0,0,1,2.81-2.76,8.16,8.16,0,0,1,8.45-.08A10.8,10.8,0,0,1,278,38.21l22.15,32.06Z"/>
    <path class="a" d="M354.35,70.27H339.67l-7.9-9.38H314.92v9.38H304V52.14h30.84a8.14,8.14,0,0,0,4.3-1.06,3.26,3.26,0,0,0,1.75-2.91,3.45,3.45,0,0,0-1.59-3.1,8.16,8.16,0,0,0-4.46-1H304l7.15-9.23h22.79a37,37,0,0,1,6.26.56,19,19,0,0,1,5.88,2,12.52,12.52,0,0,1,4.37,3.87,10.56,10.56,0,0,1,1.72,6.25,12.06,12.06,0,0,1-.63,3.92,11.17,11.17,0,0,1-1.83,3.34,11,11,0,0,1-2.92,2.52,12,12,0,0,1-3.89,1.46,24.38,24.38,0,0,1,2,1.75c.75.7,1.73,1.67,3,2.91Z"/>
    <path class="a" d="M398.29,52a7.88,7.88,0,0,1,3.95,2.7,8.09,8.09,0,0,1,1.61,5.2,11.8,11.8,0,0,1-.69,4.1,7.58,7.58,0,0,1-2.33,3.26,11.86,11.86,0,0,1-4.42,2.18,25.88,25.88,0,0,1-7,.79H358.27V48.7h31.38a4.45,4.45,0,0,0,2.14-.5,2,2,0,0,0,.93-1.89,1.83,1.83,0,0,0-1-1.8,4.65,4.65,0,0,0-2.12-.47H358.27l7.42-9.23h23.48a25.3,25.3,0,0,1,5.75.61,13.16,13.16,0,0,1,4.4,1.86,8.57,8.57,0,0,1,2.81,3.07,8.94,8.94,0,0,1,1,4.27,8.16,8.16,0,0,1-1.51,5,6.09,6.09,0,0,1-1.54,1.54A7.18,7.18,0,0,1,398.29,52Zm-29,4.24v4.87h20.19a4.23,4.23,0,0,0,2.6-.63,2.24,2.24,0,0,0,.79-1.86,2.09,2.09,0,0,0-.79-1.77,4.31,4.31,0,0,0-2.6-.61Z"/>
    <path class="a" d="M434.17,34.23q12.93,0,19.42,4.4t6.49,13.89q0,9.54-6.46,13.93t-19.45,4.4q-13,0-19.48-4.4t-6.44-13.93q0-9.5,6.47-13.89T434.17,34.23Zm0,27.4a59.8,59.8,0,0,0,7-.34,12.45,12.45,0,0,0,4.64-1.35,6,6,0,0,0,2.57-2.79,11.42,11.42,0,0,0,.8-4.63,11.44,11.44,0,0,0-.8-4.64,5.82,5.82,0,0,0-2.57-2.76,12.86,12.86,0,0,0-4.64-1.32,70.08,70.08,0,0,0-14,0,12.92,12.92,0,0,0-4.64,1.32A5.82,5.82,0,0,0,420,47.88a11.46,11.46,0,0,0-.79,4.64,11.44,11.44,0,0,0,.79,4.63,6,6,0,0,0,2.57,2.79,12.5,12.5,0,0,0,4.64,1.35A60,60,0,0,0,434.17,61.63Z"/>
    <path class="a" d="M513.67,34.81,502.48,45c-1.23,1.13-2.27,2.08-3.12,2.84s-1.57,1.39-2.17,1.91l-1.52,1.27c-.4.33-.76.63-1.08.87a12.83,12.83,0,0,1,1.06.8c.39.32.9.77,1.54,1.35l2.38,2.2c.95.88,2.16,2,3.6,3.34l11.35,10.65H499L487,58.56,474.5,70.27H460.88l11.55-10.65,3.4-3.1q1.37-1.25,2.28-2c.6-.53,1.1-1,1.51-1.28l1.08-.84-1.06-.82c-.39-.3-.88-.73-1.48-1.28l-2.28-2.06Q474.5,47,472.43,45L461.57,34.81h15.21l11.29,11,11.39-11Z"/>
    <path class="a" d="M180.9,106.22a6.19,6.19,0,0,1,3.12,2.15,6.31,6.31,0,0,1,1.28,4.11,9.53,9.53,0,0,1-.54,3.26,6.13,6.13,0,0,1-1.85,2.58A9.44,9.44,0,0,1,179.4,120a20.45,20.45,0,0,1-5.52.63H149.19V103.58h24.86a3.59,3.59,0,0,0,1.7-.4,1.54,1.54,0,0,0,.73-1.49,1.45,1.45,0,0,0-.75-1.43,3.77,3.77,0,0,0-1.68-.38H149.19l5.87-7.31h18.61a19.38,19.38,0,0,1,4.56.49,10.21,10.21,0,0,1,3.48,1.47A6.8,6.8,0,0,1,183.94,97a7.06,7.06,0,0,1,.78,3.38,6.92,6.92,0,0,1-.34,2.23,6.61,6.61,0,0,1-.86,1.7,5,5,0,0,1-1.22,1.22A6.06,6.06,0,0,1,180.9,106.22Zm-23,3.36v3.87h16a3.3,3.3,0,0,0,2.06-.51,1.76,1.76,0,0,0,.63-1.47,1.66,1.66,0,0,0-.63-1.4,3.37,3.37,0,0,0-2.06-.49Z"/>
    <path class="a" d="M227.35,92.57l-16.68,18.82v9.28h-8.73v-9.32L184.8,92.57H196l6.72,7.81.88,1,1.14,1.28,1.09,1.26c.34.4.57.69.71.88.28-.39.69-.92,1.22-1.59s1.3-1.62,2.31-2.86l6.39-7.77Z"/>
    <path class="a" d="M249.65,113.45h19.23a3.28,3.28,0,0,0,2.06-.51,1.76,1.76,0,0,0,.63-1.47,1.66,1.66,0,0,0-.63-1.4,3.35,3.35,0,0,0-2.06-.49H252l4.5-6H269a3.59,3.59,0,0,0,1.7-.4,1.55,1.55,0,0,0,.74-1.49,1.46,1.46,0,0,0-.76-1.43,3.71,3.71,0,0,0-1.68-.38H245.49l5.59-7.31h17.55a19.38,19.38,0,0,1,4.56.49,10.35,10.35,0,0,1,3.49,1.47A6.86,6.86,0,0,1,278.9,97a7.06,7.06,0,0,1,.78,3.38,6.59,6.59,0,0,1-1.2,3.93,4.88,4.88,0,0,1-1.22,1.22,6.06,6.06,0,0,1-1.4.73,6.19,6.19,0,0,1,3.12,2.15,6.32,6.32,0,0,1,1.29,4.11,9.53,9.53,0,0,1-.55,3.26,6,6,0,0,1-1.85,2.58,9.36,9.36,0,0,1-3.51,1.72,20.4,20.4,0,0,1-5.52.63H244.1Z"/>
    <path class="a" d="M320.38,106.35A12.86,12.86,0,0,1,319.1,112a14.18,14.18,0,0,1-3.53,4.54,16.9,16.9,0,0,1-5.36,3,20.18,20.18,0,0,1-6.76,1.09H284.63V103.16h8.74v10.29h10.08a10.83,10.83,0,0,0,3.34-.49,7.75,7.75,0,0,0,2.62-1.36,6.54,6.54,0,0,0,1.73-2.12,6.27,6.27,0,0,0,0-5.48,6.47,6.47,0,0,0-1.77-2.17,8.9,8.9,0,0,0-2.64-1.42,9.94,9.94,0,0,0-3.28-.53H284.63l5.55-7.31h13.27a22,22,0,0,1,6.8,1,16.32,16.32,0,0,1,5.36,2.84,13,13,0,0,1,3.51,4.36A12.38,12.38,0,0,1,320.38,106.35Z"/>
    <path class="b" d="M364.69,92.57l-8.87,8.11-2.47,2.25-1.73,1.51-1.19,1-.86.69q.38.26.84.63c.3.25.71.61,1.21,1.07l1.89,1.74,2.86,2.65,9,8.44H353.09l-9.57-9.28-9.87,9.28h-10.8l9.16-8.44c1.06-1,2-1.8,2.69-2.46l1.8-1.61c.48-.42.88-.76,1.2-1l.86-.68-.84-.65c-.31-.23-.7-.57-1.17-1l-1.81-1.64c-.73-.66-1.64-1.51-2.73-2.54l-8.61-8.07h12.05l8.95,8.74,9-8.74Z"/>
    <path class="a" d="M401.56,92.57l-5.63,7.31h-10v20.79h-8.7V99.88H364l5.63-7.31Z"/>
    <path class="a" d="M436.84,113.45l-5.58,7.22H404.21V92.57h32.55l-5.63,7.31H412.94v3.36H435.2l-5,6.38H412.94v3.83Z"/>
    <path class="a" d="M475.56,113.45,470,120.67H455.87a20.18,20.18,0,0,1-6.76-1.09,16.8,16.8,0,0,1-5.36-3,14,14,0,0,1-3.53-4.54,12.86,12.86,0,0,1-1.28-5.69,12.37,12.37,0,0,1,1.28-5.61,13.41,13.41,0,0,1,3.53-4.37,16.27,16.27,0,0,1,5.36-2.81,22.13,22.13,0,0,1,6.76-1h19.69L470,99.88H455.87a10.49,10.49,0,0,0-3.28.5,8.11,8.11,0,0,0-2.6,1.41,6.59,6.59,0,0,0-1.72,2.17,6.07,6.07,0,0,0-.63,2.77A6,6,0,0,0,450,111.6a8,8,0,0,0,2.62,1.36,10.49,10.49,0,0,0,3.28.49Z"/>
    <path class="a" d="M512.69,120.67H504V109.83H487.32v10.84h-8.73V92.57h8.73v10H504v-10h8.65Z"/>
    <path class="a" d="M521.66,101.47a5.28,5.28,0,0,1-2.1-.4,5.18,5.18,0,0,1-1.64-1.07,4.89,4.89,0,0,1-1.08-1.57,4.74,4.74,0,0,1,0-3.72,5,5,0,0,1,1.08-1.56,5.2,5.2,0,0,1,1.64-1.08,5.28,5.28,0,0,1,2.1-.4,5.58,5.58,0,0,1,2.11.39,5.34,5.34,0,0,1,1.66,1,4.8,4.8,0,0,1,1.1,1.56,4.56,4.56,0,0,1,.4,1.9,4.41,4.41,0,0,1-.4,1.86,5,5,0,0,1-1.11,1.57,5.61,5.61,0,0,1-1.68,1.07A5.28,5.28,0,0,1,521.66,101.47Zm0-8.85a4.32,4.32,0,0,0-1.76.35,4.13,4.13,0,0,0-1.33.91,4.22,4.22,0,0,0-.83,1.27,3.55,3.55,0,0,0-.3,1.42,3.7,3.7,0,0,0,.3,1.46,4,4,0,0,0,2.16,2.19,4.32,4.32,0,0,0,1.76.35,4.67,4.67,0,0,0,1.71-.31,4.76,4.76,0,0,0,1.43-.85,4.06,4.06,0,0,0,1-1.28,3.51,3.51,0,0,0,.37-1.56,3.29,3.29,0,0,0-.34-1.42,4.41,4.41,0,0,0-.94-1.27,4.8,4.8,0,0,0-1.42-.91A4.59,4.59,0,0,0,521.63,92.62Zm2.48,5.73h-1.55l-.85-1h-.85v1h-1.18v-1.9H522a.85.85,0,0,0,.46-.12.35.35,0,0,0,.19-.31c0-.3-.22-.45-.65-.45h-2.33l.78-1h1.45a4,4,0,0,1,.67.06,2.19,2.19,0,0,1,.64.21,1.33,1.33,0,0,1,.47.41,1.11,1.11,0,0,1,.19.67,1.17,1.17,0,0,1-.26.76,1.29,1.29,0,0,1-.74.41,1.2,1.2,0,0,1,.21.19l.32.31Z"/>
  </g>
  <g>
    <path class="a" d="M0,49.63A.13.13,0,0,0,0,49.57a1.33,1.33,0,0,0,0-.34c0-.9.05-1.81.1-2.71s.15-1.88.21-2.81a.54.54,0,0,1,.18-.34L1.83,42c1.74-1.86,3.54-3.68,5.38-5.45,1.33-1.28,2.68-2.54,4-3.8,1.07-1,2.15-2,3.22-3a.5.5,0,0,1,.58-.12c2.71.87,5.46,1.58,8.25,2.18,1.27.27,2.55.52,3.82.78.45.08.42,0,.43.5,0,.87,0,1.73.07,2.59s.09,1.91.19,2.86c.07.69.12,1.39.19,2.08s.15,1.36.24,2,.23,1.61.36,2.41c.16,1,.32,2,.5,3,.15.84.32,1.67.49,2.51a.61.61,0,0,1-.13.57c-1.48,2-3,3.93-4.44,5.9q-2.92,3.93-5.78,7.9l-1.73,2.43a.91.91,0,0,0-.11.16.28.28,0,0,1-.33.13l-.87-.16c-2.31-.45-4.6-.93-6.88-1.47-2.75-.66-5.47-1.4-8.16-2.26l-.25-.08a.2.2,0,0,1-.16-.19c0-.19-.06-.39-.08-.58C.57,62.05.48,61.18.4,60.31S.25,58.69.2,57.88.12,56.1.09,55.21c0-.13,0-.26,0-.38a.09.09,0,0,0-.1-.09v-.16l.05,0s0-.06,0-.06V49.86s.06,0,.05-.06l0,0ZM15.6,63.32c.14,0,.21-.06.27-.15L17.43,61c2.27-3.11,4.59-6.16,6.94-9.21l1.13-1.47a.4.4,0,0,0,.1-.39c-.08-.3-.13-.6-.19-.91-.17-1-.35-2-.51-2.93-.13-.79-.23-1.58-.33-2.37-.07-.6-.11-1.21-.18-1.81-.1-.87-.15-1.74-.2-2.62s-.08-1.83-.11-2.74c0-.16,0-.31,0-.47s0-.19-.2-.23l-1.52-.31c-1.61-.33-3.21-.71-4.81-1.14-.79-.21-1.59-.43-2.38-.67a.48.48,0,0,0-.55.12c-.21.22-.45.42-.67.64-1.84,1.74-3.66,3.49-5.43,5.29C6.91,41.37,5.37,43,3.83,44.6a1.09,1.09,0,0,0-.32.75c0,.49-.06,1-.1,1.47-.07.9-.12,1.8-.13,2.7,0,1.43,0,2.86.05,4.29,0,.74.08,1.47.11,2.21,0,.06,0,.12,0,.19l.21,2.31c0,.59.11,1.18.16,1.77,0,.1,0,.17.15.19l.22.07c1,.28,1.95.57,2.94.84,2.51.67,5.05,1.24,7.6,1.77Z"/>
    <path class="a" d="M134.09,79.35a.29.29,0,0,0-.06.22,17.78,17.78,0,0,1-.45,3.33,57.38,57.38,0,0,1-2.31,8c-.78,2.22-1.65,4.4-2.55,6.56-.15.37-.32.74-.46,1.11a1.77,1.77,0,0,1-.45.66,19.32,19.32,0,0,1-3.08,2.33,29.38,29.38,0,0,1-3.44,1.77c-.94.42-1.89.82-2.83,1.23l-.26.1s-.07,0-.08-.06a.2.2,0,0,1,0-.11c-.06-.89-.21-1.77-.34-2.65s-.31-1.9-.48-2.85c-.22-1.18-.44-2.36-.67-3.54-.36-1.82-.73-3.63-1.23-5.42a3.94,3.94,0,0,0-.35-.94.38.38,0,0,1,0-.33c.17-.53.34-1.06.52-1.58.9-2.77,1.77-5.55,2.57-8.35.69-2.43,1.33-4.88,1.88-7.34.22-1,.42-2,.61-3a.44.44,0,0,1,.29-.36c.76-.33,1.51-.68,2.24-1a33.9,33.9,0,0,0,5.64-3.52c.52-.4,1-.83,1.52-1.25l.17-.14c.11,0,.11.11.14.18a64.1,64.1,0,0,1,2.23,7.43c.33,1.45.6,2.91.81,4.37.14,1,.25,2,.35,2.92,0,.35,0,.7,0,1,0,.09,0,.19.06.26ZM131.63,79c0-.31-.06-.62-.08-.93,0-.64-.1-1.28-.18-1.92-.17-1.27-.39-2.52-.68-3.77-.33-1.43-.72-2.84-1.16-4.24-.06-.2-.09-.21-.27-.09l-.12.08c-.72.51-1.46,1-2.22,1.42-1.07.62-2.17,1.18-3.3,1.7a.49.49,0,0,0-.31.39c-.15.87-.33,1.75-.5,2.62a83,83,0,0,1-2.27,8.63c-.58,1.82-1.2,3.62-1.84,5.41a.88.88,0,0,0,0,.64,48.39,48.39,0,0,1,1.58,5.81c.24,1.17.44,2.36.59,3.55l.15,1.26c0,.16.06.17.21.1l.69-.34a27.69,27.69,0,0,0,4.45-2.79,2,2,0,0,0,.55-.68,21.83,21.83,0,0,0,1.15-2.79c.69-1.93,1.25-3.9,1.77-5.88.59-2.23,1.11-4.48,1.61-6.73A4.2,4.2,0,0,0,131.63,79Z"/>
    <path class="a" d="M75.34,0c0,.07.1.08.15.1l3.63,1.33L89.64,5.3,92.8,6.46a1.83,1.83,0,0,1,.48.25c1.3.92,2.56,1.92,3.77,3,2.07,1.78,4,3.67,5.91,5.64,1.22,1.27,2.42,2.57,3.56,3.92l.15.18c0,.13-.16.17-.25.22l-3.73,2.3-1.58,1-.19.12a.24.24,0,0,1-.29,0l-.69-.43-8.38-5.27-7.21-4.53a2.25,2.25,0,0,1-.52-.45,31.84,31.84,0,0,0-3.29-3.28,76.33,76.33,0,0,0-9-6.65l-.15-.11s0,0,0,0,.15-.14.23-.18L75.09.14c.07,0,.15-.05.17-.14Zm2.11,3.14v0a.9.9,0,0,0,.28.2,32.79,32.79,0,0,1,5.6,4.5c.9.92,1.78,1.87,2.65,2.81a2.28,2.28,0,0,0,.51.42l2.19,1.37q4.14,2.63,8.13,5.44l2.31,1.63a.39.39,0,0,0,.46.05A21.23,21.23,0,0,0,102.36,18c.07-.05.17-.08.19-.19l-.11-.15-1.29-1.44a42.45,42.45,0,0,0-4.8-4.49c-1.28-1-2.6-2-3.92-3a5.32,5.32,0,0,0-.83-.49c-1.93-.87-3.85-1.76-5.77-2.64-1.64-.75-3.28-1.49-5-2.14-.66-.25-1.33-.47-2-.72a.68.68,0,0,0-.59,0,5.09,5.09,0,0,1-.54.22C77.64,3,77.52,3.05,77.45,3.14Z"/>
    <path class="a" d="M72.4,144a.53.53,0,0,0-.07-.3c-.14-.36-.28-.72-.41-1.08-.08-.18-.08-.19.07-.28a31.25,31.25,0,0,0,2.73-2.09c1.81-1.48,3.58-3,5.35-4.52,1.27-1.09,2.54-2.2,3.8-3.3l2.58-2.27a.65.65,0,0,1,.38-.18c1.25-.15,2.5-.33,3.74-.54a61.25,61.25,0,0,0,8.57-2c.64-.21,1.27-.44,1.9-.67l.24-.09c.09.07.06.15,0,.22a6.65,6.65,0,0,1-.75,1.65,25.89,25.89,0,0,1-1.85,2.67c-1,1.25-2,2.44-3.11,3.6a9.8,9.8,0,0,1-2.13,1.72,49,49,0,0,1-9.43,4.52A60.41,60.41,0,0,1,77.34,143q-2.1.48-4.2.87a.67.67,0,0,0-.43.14Zm23.52-12.84h-.14q-2.11.54-4.26,1c-1.18.23-2.36.44-3.53.65a1.42,1.42,0,0,0-.63.27c-1.66,1.32-3.35,2.58-5.07,3.81-2,1.45-4.05,2.85-6.15,4.17l-.82.51a.24.24,0,0,0-.13.18.83.83,0,0,0,.76.91,3.55,3.55,0,0,0,.46,0c.28,0,.56-.1.84-.15a41.2,41.2,0,0,0,6.81-2,47.23,47.23,0,0,0,8.66-4.52,5.41,5.41,0,0,0,1-.86,7.49,7.49,0,0,0,1.19-1.71c.35-.69.67-1.4,1-2.09A1,1,0,0,0,95.92,131.16Z"/>
    <path class="a" d="M63.67,113.29c-.58,0-1.29,0-2,0a2.43,2.43,0,0,0-.27,0,.26.26,0,0,1-.26-.14c-.08-.13-.16-.26-.25-.39-1.55-2.4-3.12-4.8-4.66-7.21q-2.88-4.48-5.65-9l-.07-.09a.32.32,0,0,1,0-.39q.78-1.27,1.53-2.55c1.44-2.44,2.88-4.87,4.3-7.31q2.44-4.23,4.88-8.48c.22-.38.15-.33.56-.33l1.78,0c1.07,0,2.14,0,3.21-.09l2.09-.07,3.36-.16c.89,0,1.77-.09,2.66-.15l2.28-.15c1-.08,2.08-.15,3.12-.24.86-.07,1.72-.14,2.58-.23a.41.41,0,0,1,.47.22c.74,1.17,1.5,2.32,2.23,3.49,1.33,2.11,2.66,4.24,4,6.36,1.53,2.47,3,5,4.49,7.46a.33.33,0,0,0,.06.1.21.21,0,0,1,0,.25c-.15.26-.29.52-.44.77-2.14,3.62-4.42,7.16-6.78,10.64-1.46,2.14-3,4.26-4.47,6.36l-.09.13a.34.34,0,0,1-.29.16l-2,.16-2.39.2-1.08.08-1.77.11-3.21.2h-.07l-2.63.11-2.82.12Zm1-3.66h0l2.4-.08,2.74-.1h.08l2.59-.14c.55,0,1.11,0,1.66-.09s.85,0,1.27-.08l2.62-.2,1.93-.16a.32.32,0,0,0,.28-.16c0-.07.1-.13.14-.19.91-1.3,1.83-2.59,2.72-3.9,1.79-2.61,3.48-5.28,5.12-8,.4-.65.78-1.31,1.19-2a.39.39,0,0,0,0-.49l-3.26-5.44c-1.4-2.32-2.85-4.61-4.3-6.9-.23-.37-.47-.73-.7-1.11a.29.29,0,0,0-.29-.15l-.65.07-3,.23c-.78.06-1.57.11-2.35.15l-2.71.16-3.47.15c-1.44,0-2.87.07-4.3.11H64a.3.3,0,0,0-.31.17c-.08.16-.18.32-.27.47-1.34,2.34-2.67,4.68-4,7S56.67,93.66,55.3,96c-.24.41-.26.31,0,.75,1.19,2,2.38,3.9,3.61,5.82l3.85,6c.19.3.39.58.57.88a.42.42,0,0,0,.44.23C64.09,109.62,64.4,109.63,64.71,109.63Z"/>
    <path class="b" d="M62.29,70.76h-.53a2.14,2.14,0,0,1-.32-.52L51.87,52.6c-.25-.46-.25-.3,0-.77L60.46,35.3a.46.46,0,0,0,.07-.14c.07-.19.2-.23.39-.24l3.48-.17,4.32-.24L73,34.28l3.51-.2c.72,0,.5-.12.93.41q6.09,7.48,12.17,15A2.19,2.19,0,0,1,90,50c-.07.21-.13.42-.21.62q-3.25,9.24-6.51,18.48c-.2.57,0,.49-.69.53L79,69.84l-3.4.2-2,.1-2.2.13-1.55.08-2.12.11-2,.12-1.47.08ZM68,66.66l2.9-.14,3.51-.19,1.28-.08L78.65,66l1.66-.14a.19.19,0,0,0,.17-.13,2,2,0,0,1,.1-.21c.63-1.48,1.23-3,1.81-4.48C83.67,57.76,84.77,54.4,85.8,51a.55.55,0,0,0-.13-.55c-2.82-3.49-5.63-7-8.39-10.53l-1.41-1.8a.34.34,0,0,0-.36-.15q-.75.08-1.5.12l-1.31.1-3.09.2c-.75,0-1.5.07-2.24.11-1.36.06-2.71.12-4.06.14-.4,0-.35,0-.51.33-.82,1.8-1.67,3.57-2.56,5.33-1.28,2.53-2.63,5-4,7.52l-.2.37a.22.22,0,0,0,0,.22c.05.08.08.16.13.24.65,1.24,1.29,2.49,2,3.73,1.82,3.41,3.76,6.76,5.7,10.1l.1.17a.17.17,0,0,0,.19.1h.27Z"/>
    <path class="a" d="M96.62,90.35a.2.2,0,0,1-.2-.1L96,89.58c-1.65-2.86-3.39-5.66-5.17-8.44s-3.51-5.38-5.31-8c-.3-.44-.3-.29-.07-.83q1.88-4.39,3.47-8.9,1.65-4.66,3-9.43l.21-.78a.29.29,0,0,1,.27-.24l1.1-.19,3.2-.57c1.45-.27,2.9-.57,4.35-.89,1.67-.37,3.34-.77,5-1.21l2-.55.14,0a.23.23,0,0,1,.3.1c.72.91,1.45,1.81,2.17,2.73,2.85,3.63,5.52,7.4,8.06,11.26.35.52.69,1.06,1,1.58a.61.61,0,0,1,.11.47c-.16.89-.28,1.78-.43,2.67q-.47,2.55-1.06,5.07-.76,3.18-1.69,6.31t-2,6.37a1.27,1.27,0,0,0-.06.18.37.37,0,0,1-.31.3c-.91.24-1.82.5-2.72.75-2,.53-4,1-6,1.43-1.5.32-3,.62-4.51.89-1,.17-1.9.35-2.85.51-.48.09-1,.16-1.45.24Zm19.77-24a.61.61,0,0,0-.13-.32l-1.08-1.69c-2.33-3.6-4.92-7-7.56-10.38a.29.29,0,0,0-.36-.11q-2.67.72-5.37,1.31c-1.75.39-3.5.73-5.26,1.05l-1.22.22a.2.2,0,0,0-.19.16,1.25,1.25,0,0,1-.07.26c-.16.6-.31,1.2-.48,1.79-.67,2.37-1.44,4.71-2.29,7-.77,2.08-1.6,4.13-2.43,6.19-.18.44-.2.3.08.72,1.49,2.18,3,4.35,4.38,6.57s2.68,4.29,4,6.46c.24.4.24.41.69.32,1.57-.29,3.14-.57,4.71-.89q4-.82,8-1.89c.23-.06.4-.15.44-.41a.21.21,0,0,1,0-.1q1-2.75,1.75-5.53c.47-1.66.88-3.34,1.26-5s.7-3.38,1-5.08C116.32,66.78,116.36,66.57,116.39,66.35Z"/>
    <path class="a" d="M49.64,129.11c-1.13-.05-2.27-.09-3.4-.15l-2.55-.15-2.62-.2-1.39-.1-2.19-.2-1-.1-2.88-.3c-.23,0-.46-.06-.69-.07a.55.55,0,0,1-.4-.21l-1.41-1.49c-.67-.73-1.34-1.47-2-2.21q-1.77-2-3.48-4c-1.6-1.89-3.16-3.82-4.7-5.75-.22-.28-.43-.56-.65-.82a.38.38,0,0,1-.06-.43c.23-.52.43-1,.65-1.57,1.5-3.54,3.18-7,4.95-10.41l1.5-2.88.15-.27a.18.18,0,0,1,.19-.11l.3,0,2.42.28,1.93.18,2,.2,1.23.1,1.42.13,1.08.08,1.47.1,1.73.13h.2c.68,0,1.36.06,2,.11,1.1.07,2.19.11,3.29.16.49,0,1,0,1.46,0a.4.4,0,0,1,.38.22q.68,1.09,1.38,2.19c2,3.17,4.08,6.3,6.18,9.41l3,4.35.17.25a.2.2,0,0,1,0,.25l-1,1.46c-1.45,2.08-2.92,4.15-4.37,6.24-1.22,1.74-2.43,3.49-3.65,5.24l-.11.16a.26.26,0,0,1-.23.11h-.31ZM47,125.75v0l.77.06a.26.26,0,0,0,.29-.14.91.91,0,0,1,.11-.16c.44-.65.87-1.31,1.32-2l4.93-7.17c.09-.14.18-.28.28-.41a.24.24,0,0,0,0-.35,1.7,1.7,0,0,1-.15-.22q-1.29-1.86-2.57-3.73c-1.86-2.72-3.66-5.49-5.45-8.27-.26-.4-.17-.34-.6-.36l-.54,0L43,102.87h-.12L41,102.74l-1.66-.1-1.15-.09-1.51-.12-1.31-.1-2.07-.21L31,101.9l-.89-.09a.3.3,0,0,0-.34.18l-1,1.85c-1.15,2.21-2.26,4.43-3.28,6.7-.36.8-.71,1.61-1.07,2.4a.33.33,0,0,0,0,.39q2,2.6,4.09,5.1c1.44,1.7,2.93,3.37,4.43,5,.32.37.66.72,1,1.09a.62.62,0,0,0,.43.22l.58.06,2.73.28c.73.07,1.46.12,2.2.18l1.11.08,1.74.14,1.7.1Z"/>
    <path class="a" d="M49.45,49.09,47.19,49c-.49,0-1,0-1.47-.08s-1.29-.07-1.93-.11l-3-.2c-.41,0-.82,0-1.23-.08-.87-.07-1.75-.12-2.62-.18s-1.47-.14-2.2-.21C34.15,48,33.58,48,33,47.91c-.32,0-.63-.1-1-.14a.3.3,0,0,1-.28-.27c-.1-.44-.22-.88-.31-1.32-.23-1-.43-2-.6-3.07s-.29-1.94-.42-2.91c-.11-.76-.2-1.53-.28-2.3s-.13-1.31-.18-2l-.21-2.62a.86.86,0,0,0,0-.16c0-.85-.07-1.7-.1-2.55,0-.14,0-.28,0-.42a.6.6,0,0,1,.18-.56c.33-.33.64-.67,1-1l3.93-4.21L38,20.87l3.88-4.16c.37-.39.23-.33.77-.28s1.07.13,1.61.19,1.15.13,1.73.18l2.15.21,1,.08,1.78.1c.64,0,1.29,0,1.93.06.26,0,.52,0,.78,0s.21,0,.27.2c.17.54.33,1.08.49,1.62,1.11,3.61,2.32,7.19,3.77,10.68.33.8.68,1.59,1,2.38a.39.39,0,0,1,0,.39l-1.63,3-2.53,4.61-4.8,8.67c-.21.38-.15.33-.56.33Zm-2.08-4H48a.2.2,0,0,0,.19-.11,1.4,1.4,0,0,1,.1-.16q1.72-2.82,3.37-5.69c1.21-2.12,2.36-4.26,3.51-6.42l.19-.38a.3.3,0,0,0,0-.29c-.07-.15-.13-.31-.2-.46a76.78,76.78,0,0,1-3-7.72c-.32-1-.62-2-.92-3-.1-.33-.11-.28-.4-.3l-1.7-.09-1.62-.12-1.5-.11-.92-.08c-.63-.06-1.26-.12-1.89-.2a.52.52,0,0,0-.5.2c-.71.81-1.42,1.6-2.14,2.39l-4.35,4.78c-1,1.08-2,2.16-3,3.22a.74.74,0,0,0-.21.56c0,.6.05,1.21.09,1.81,0,.42,0,.83.08,1.24.09.83.18,1.66.28,2.49s.21,1.64.35,2.45c.18,1.08.39,2.16.59,3.24.1.53.21,1.06.32,1.59,0,.2.08.23.28.25l.73.07,2.81.26,1,.09,2.43.2c.57,0,1.13,0,1.7.11s.87,0,1.31.07Z"/>
    <path class="a" d="M116.9,107.75a.45.45,0,0,1-.14.38L115,110.21c-1,1.19-2,2.37-3,3.56-.86,1-1.72,2-2.57,3l-3.08,3.58-2.52,2.94c-.17.19-.34.38-.5.59a.76.76,0,0,1-.45.27c-1,.27-2,.55-3.07.8-1.33.33-2.68.62-4,.9-1.19.24-2.38.47-3.57.67l-2.82.48c-.24,0-.24,0-.31-.21-.16-.57-.32-1.14-.49-1.71a47,47,0,0,0-2.92-7.69c-.48-1-1-1.89-1.56-2.8l-.12-.2a.21.21,0,0,1,0-.31l.92-1.2c2.26-2.94,4.43-6,6.52-9q2.28-3.39,4.43-6.85a1.63,1.63,0,0,0,.11-.17.4.4,0,0,1,.31-.2c1.85-.29,3.7-.63,5.55-1,3-.59,6-1.28,9-2,.87-.23,1.74-.48,2.61-.73l.33-.09a.11.11,0,0,1,.13.06,1.47,1.47,0,0,1,.06.14c.66,2,1.22,4,1.69,6q.38,1.64.66,3.3c.14.81.25,1.63.36,2.45s.18,1.84.27,2.77C116.89,107.58,116.89,107.64,116.9,107.75Zm-3.39-.4c-.06-.72-.13-1.44-.23-2.15q-.23-1.65-.6-3.27c-.32-1.39-.7-2.77-1.11-4.14-.18-.59-.07-.5-.64-.35-1.42.37-2.85.72-4.28,1s-3,.67-4.57,1c-1.19.23-2.38.45-3.57.65a.71.71,0,0,0-.55.36q-1.56,2.57-3.25,5c-1.62,2.39-3.34,4.71-5.1,7L88.46,114a.35.35,0,0,0,0,.45c.2.39.39.79.58,1.18A50.75,50.75,0,0,1,91.55,122c.12.36.24.73.35,1.1s.14.26.35.22c.8-.15,1.62-.29,2.43-.45,1-.2,2.09-.42,3.14-.65,1.66-.36,3.31-.77,5-1.21a1.42,1.42,0,0,0,.63-.36l.27-.27c.92-.93,1.77-1.91,2.6-2.92,1.17-1.4,2.3-2.85,3.4-4.31,1.25-1.64,2.46-3.31,3.67-5a.71.71,0,0,0,.17-.6Z"/>
    <path class="a" d="M77.58,27.23c0-1.45,0-2.91-.09-4.37,0-1.14-.14-2.29-.27-3.43s-.26-2.09-.47-3.13c0-.05,0-.1,0-.15s0-.18.17-.2c.6,0,1.21-.09,1.81-.17.87-.1,1.73-.24,2.59-.4,1.27-.25,2.53-.53,3.76-.9a.7.7,0,0,1,.55.06c.71.36,1.38.76,2,1.17,2.33,1.44,4.59,3,6.84,4.52q2.5,1.72,5,3.47c.81.57,1.62,1.15,2.43,1.71a.77.77,0,0,1,.33.5c.31,1.49.63,3,1,4.46l1,4.87q.6,2.82,1.21,5.63c.16.77.33,1.54.49,2.31l0,.11c0,.15,0,.19-.14.22l-.56.13L96.83,45.5l-6,1.32-.12,0a.34.34,0,0,1-.42-.14l-4.38-5.07-5.19-6-3-3.51a.66.66,0,0,1-.2-.52c0-1,0-2,.05-3.05C77.55,28.11,77.57,27.67,77.58,27.23Zm3.33,2.92h0a1.21,1.21,0,0,1,0,.19.65.65,0,0,0,.2.6c.29.31.56.63.85.95l2.67,3,3.51,4,2.05,2.32,1.23,1.4a.38.38,0,0,0,.4.16l.15,0,1.9-.36q3.58-.66,7.13-1.56l1.2-.31c.14,0,.16-.08.16-.22s0-.08,0-.12c-.11-1-.2-2.1-.36-3.15s-.35-2.18-.6-3.26c-.49-2.16-1.17-4.25-1.84-6.35a.88.88,0,0,0-.28-.4c-.24-.18-.46-.37-.69-.56-1.93-1.6-3.89-3.15-5.88-4.67l-5.38-4c-.31-.22-.31-.23-.67-.13-1.08.3-2.17.55-3.27.78l-2.61.52c-.15,0-.17.06-.16.2a.78.78,0,0,0,0,.16c.13.69.23,1.4.32,2.1s.16,1.51.19,2.27c.06,1.52,0,3-.08,4.56,0,0,0,.08,0,.12Z"/>
    <path class="a" d="M129.3,55.91c0,.12-.06.21-.16.3a24.51,24.51,0,0,1-2,1.56,33.37,33.37,0,0,1-5.08,2.94l-2.18,1-.25.11a.13.13,0,0,1-.17-.06l-.15-.22c-2.14-3.21-4.43-6.31-6.83-9.33q-2.22-2.8-4.53-5.54l-.15-.18a.5.5,0,0,1-.14-.35c-.07-1.09-.18-2.18-.32-3.27-.27-2.13-.63-4.25-1.11-6.35-.58-2.6-1.29-5.15-2.12-7.68-.17-.53-.16-.44.29-.64A36.93,36.93,0,0,0,108,26.42,21.37,21.37,0,0,0,111.38,24l.12-.1a.11.11,0,0,1,.14,0l.45.37c1.31,1.13,2.61,2.27,3.87,3.45s2.45,2.32,3.64,3.53q2.41,2.47,4.7,5.08a2,2,0,0,1,.33.56c.84,2.2,1.56,4.43,2.18,6.69.56,2,1,4.07,1.45,6.13.27,1.39.53,2.78.73,4.19.09.59.19,1.19.28,1.79C129.28,55.75,129.29,55.82,129.3,55.91Zm-3.09-2.37a3.31,3.31,0,0,0,0-.34c-.12-.77-.23-1.55-.36-2.32-.27-1.67-.63-3.32-1-5-.66-2.57-1.5-5.07-2.37-7.56a1,1,0,0,0-.2-.37c-.91-1.1-1.84-2.16-2.81-3.19s-1.93-2-2.94-3-1.87-1.75-2.81-2.61c-.32-.3-.65-.59-1-.88-.14-.12-.14-.11-.3,0a25.72,25.72,0,0,1-3.88,2.3l-.21.11c-.11.06-.13.1-.1.21s.06.2.09.3c.44,1.32.82,2.66,1.15,4s.6,2.66.82,4c.13.78.23,1.56.34,2.33l.18,1.38c.06.58.14,1.15.19,1.73a1,1,0,0,0,.26.62c1.19,1.34,2.34,2.72,3.46,4.12q2.39,2.94,4.57,6.05c.35.48.69,1,1,1.45.14.19.15.19.35.1a31.7,31.7,0,0,0,4.47-2.53c.34-.23.67-.48,1-.73A.25.25,0,0,0,126.21,53.54Z"/>
    <path class="a" d="M61.76,140.15c-.51,0-1,0-1.54,0a.65.65,0,0,1-.6-.27L57,137l-2.13-2.41L51.72,131l-.12-.15a.14.14,0,0,1,0-.18c0-.08.11-.15.16-.22q3.42-4.64,6.91-9.22l2.19-2.91.11-.15a.31.31,0,0,1,.26-.14c.22,0,.44,0,.66,0l1.55,0,3.83-.1c1.14,0,2.29-.09,3.43-.15.91,0,1.81-.09,2.71-.15l2.7-.2,1.46-.1,2.27-.2,1.08-.1a.3.3,0,0,1,.34.18c.34.69.71,1.37,1,2.07,1.32,2.66,2.47,5.39,3.56,8.14.23.57.44,1.13.67,1.7a.3.3,0,0,1-.09.37c-.61.52-1.21,1.05-1.82,1.56q-2.16,1.83-4.38,3.57-2.42,1.88-4.89,3.66l-1.52,1.08a1,1,0,0,1-.57.19c-.6,0-1.2.09-1.81.13l-1.12.08-1.77.1-1.85.13h-.12c-.81,0-1.62.06-2.43.11S62.56,140.13,61.76,140.15Zm1-2.8v0c.32,0,.65,0,1,0l2.74-.13c.7,0,1.39-.05,2.09-.1L69.8,137l2.62-.2a1,1,0,0,0,.54-.19c.35-.26.71-.51,1.06-.78,1.35-1,2.67-2.07,4-3.15s2.8-2.36,4.19-3.55c.37-.31.31-.21.16-.64a42.53,42.53,0,0,0-1.76-4c-.57-1.17-1.18-2.32-1.76-3.49-.11-.21-.23-.32-.48-.28s-.64.06-1,.08l-1.43.1-2.7.2c-.88.06-1.77.11-2.66.15q-1.82.09-3.63.15c-1.19,0-2.37.07-3.56.09a.55.55,0,0,0-.48.25L61,124.2l-4.15,5.35-.8,1a.16.16,0,0,0,0,.24l.09.12,1.09,1.26,2.44,2.86,1.8,2.12a.41.41,0,0,0,.36.17Z"/>
    <path class="a" d="M32.33,138.27,30.84,138c-.84-.15-1.68-.29-2.51-.45a40.24,40.24,0,0,1-5.44-1.3c-.53-.18-1.05-.38-1.56-.59a3.4,3.4,0,0,1-.67-.38c-1-.7-2-1.46-3-2.22-1.84-1.4-3.64-2.84-5.43-4.3s-3.74-3-5.56-4.63c-.7-.6-.5-.33-.86-1.19a22.05,22.05,0,0,1-1.44-5.09C4.2,117,4.1,116,4,115.11c-.1-1.25-.14-2.5-.15-3.75a.76.76,0,0,1,0-.15.06.06,0,0,1,.08-.06l.26.07c2.32.73,4.66,1.41,7,2,2.13.54,4.28,1,6.44,1.44.58.11,1.16.23,1.75.33a.73.73,0,0,1,.44.27c.62.74,1.24,1.49,1.87,2.22S23,119,23.66,119.67c1.72,1.94,3.5,3.82,5.32,5.68,1.06,1.08,2.14,2.16,3.23,3.22l.14.13a.37.37,0,0,1,.12.44,17,17,0,0,0-.38,2.25,17.56,17.56,0,0,0-.05,3.16,23.66,23.66,0,0,0,.55,3.47.76.76,0,0,1,0,.16c0,.08,0,.12-.1.11Zm-3.95-3.5a.18.18,0,0,0,.05-.16c0-.18-.05-.36-.06-.54a16.78,16.78,0,0,1,.1-3.17c.06-.43.12-.87.19-1.3a.43.43,0,0,0-.15-.41c-.2-.18-.4-.36-.59-.55-2.2-2.13-4.33-4.32-6.37-6.6l-2-2.26c-.39-.45-.78-.89-1.16-1.34a.66.66,0,0,0-.42-.25c-.45-.08-.89-.18-1.33-.27q-2.88-.57-5.72-1.31c-1.11-.28-2.21-.59-3.32-.89-.09,0-.17-.07-.26,0a.42.42,0,0,0,0,.27c0,.27,0,.54.05.81a14.63,14.63,0,0,0,.44,2.78,31.5,31.5,0,0,0,1,3.12,1.72,1.72,0,0,0,.5.76c.7.61,1.38,1.25,2.07,1.87,1.41,1.26,2.88,2.46,4.38,3.62,1.76,1.36,3.56,2.64,5.38,3.91a1.69,1.69,0,0,0,.52.26c2,.59,4,1.09,6,1.53Z"/>
    <path class="a" d="M126.7,102.14l-.39,1c-.63,1.48-1.31,3-2,4.38a60.79,60.79,0,0,1-5.55,8.93c-1.15,1.53-2.37,3-3.66,4.4-1.09,1.2-2.22,2.34-3.4,3.45a65.5,65.5,0,0,1-6.38,5.26q-2.36,1.71-4.81,3.24a.44.44,0,0,1-.25.11.66.66,0,0,1,.15-.34c.62-1.16,1.26-2.31,1.88-3.47.5-.93,1-1.87,1.42-2.84a6.4,6.4,0,0,0,.57-1.47.43.43,0,0,1,.14-.23c.57-.67,1.13-1.34,1.7-2l3.28-3.87,2.83-3.33,3.28-3.87,1.43-1.68a1.1,1.1,0,0,1,.43-.31,20.89,20.89,0,0,0,5.82-3.62,23.12,23.12,0,0,0,3.31-3.47l.21-.25Zm-22.13,25.49.39-.29c1.5-1.2,3-2.43,4.42-3.7a71.35,71.35,0,0,0,5.22-5.07q1.56-1.69,3-3.52a31.67,31.67,0,0,0,2.59-4c0-.08.11-.14.09-.24s-.14,0-.2.06q-1.46.83-3,1.5a1,1,0,0,0-.4.35,93.39,93.39,0,0,1-8.34,9.76c-.83.85-1.67,1.69-2.5,2.53a1.09,1.09,0,0,0-.29.41,19.05,19.05,0,0,1-.93,2S104.53,127.53,104.57,127.63Z"/>
  </g>
</svg>
