<?xml version="1.0" encoding="utf-8"?>
<!-- Generator: Adobe Illustrator 25.1.0, SVG Export Plug-In . SVG Version: 6.00 Build 0)  -->
<svg version="1.1" id="Layer_1" xmlns="http://www.w3.org/2000/svg" xmlns:xlink="http://www.w3.org/1999/xlink" x="0px" y="0px"
	 viewBox="0 0 30 30" style="enable-background:new 0 0 30 30;" xml:space="preserve">
<style type="text/css">
	.st0{fill-rule:evenodd;clip-rule:evenodd;fill:#B52525;}
	.st1{fill-rule:evenodd;clip-rule:evenodd;fill:#808080;}
</style>
<g>
	<path class="st0" d="M16.4,9.3c0.6,0.8,0.8,1,1.7,2.1c-0.2,0.7-0.4,1.4-0.9,2.5c-0.9,0.1-1.8,0.1-2.7,0.1c-0.5-0.8-0.9-1.5-1.3-2.4
		c0.4-0.7,0.8-1.4,1.2-2.3C15,9.4,15.7,9.4,16.4,9.3 M12.4,11.7l1.7,3.1l3.5-0.2l1.1-3.3l-2.1-2.7l-2.7,0.1L12.4,11.7z"/>
	<path class="st1" d="M19,10.1c-0.3-0.4-0.7-0.8-1-1.2c-0.2-0.3-0.5-0.6-0.7-0.8c0.1-0.8,0.1-1.3-0.1-2c0.4-0.1,0.7-0.1,1.1-0.2
		c0.7,0.5,1.3,1,2.1,1.6c0.3,0.8,0.4,1.3,0.5,2.2C20.3,9.9,19.7,10,19,10.1 M18,5.4c-0.4,0.1-0.9,0.2-1.4,0.3
		c0.2,0.9,0.2,1.8,0.1,2.7c0.3,0.4,2.2,2.5,2.2,2.5l2.6-0.6l-0.6-3C20.8,7.3,18.5,5.6,18,5.4"/>
	<path class="st1" d="M18.1,4.8c-0.5-0.6-0.8-0.9-1.5-1.3c0,0,0.2-0.1,0.2-0.1c0.7,0.2,1.3,0.5,2.2,1c0.7,0.5,1.2,0.9,1.8,1.6
		c-0.1,0.1-0.3,0.2-0.5,0.3C19.7,5.8,19,5.4,18.1,4.8 M21.5,6.2c0,0-1.1-1.4-2.3-2.2L16.3,3l-0.7,0.4c0,0,1.4,0.9,2.1,1.7l2.8,1.8
		L21.5,6.2z"/>
	<path class="st1" d="M23.8,12.5c-0.4-0.6-0.8-1.2-1.6-2c-0.1-0.7-0.2-1.5-0.5-2.4C22,8,22.3,7.9,22.5,7.7c0.5,0.5,1.1,1,1.6,1.7
		c0.3,0.7,0.5,1.5,0.6,2.6C24.5,12.1,24.2,12.3,23.8,12.5 M21.1,7.7c0.3,1,0.5,2,0.6,3c0.7,0.8,1.4,1.7,2,2.6c0.6-0.3,1.1-0.5,1.6-1
		c-0.2-1.1-0.4-2.2-0.8-3.2c-0.7-0.8-1.4-1.5-2.1-2.1C21.9,7.3,21.5,7.5,21.1,7.7"/>
	<path class="st1" d="M21.6,12c0.5,0.6,1,1.3,1.5,2.1c-0.1,0.8-0.3,1.6-0.7,2.8c-0.7,0.2-1.4,0.4-2.2,0.5c-0.4-0.7-0.7-1.2-1.5-2.3
		c0.3-0.8,0.6-1.6,0.9-2.6C20.3,12.3,21,12.1,21.6,12 M19.8,18.1c1-0.2,2-0.4,3-0.7c0.4-1.1,0.7-2.3,0.9-3.5
		c-0.6-0.9-1.2-1.8-1.9-2.7c-0.9,0.3-1.8,0.4-2.7,0.6C18.8,13,18.4,14,18,15.1C18.6,16.1,19.2,17.1,19.8,18.1"/>
	<path class="st1" d="M14.3,21.3c-0.5-0.8-0.9-1.4-1.4-2.2c0.4-0.6,0.9-1.4,1.4-2.5c1,0,1.9-0.1,2.9-0.2c0.4,0.7,0.8,1.3,1.4,2.3
		c-0.4,0.7-0.9,1.4-1.6,2.4C16.2,21.2,15.3,21.3,14.3,21.3 M17.6,15.7c-1.2,0.1-2.4,0.2-3.6,0.2C13.4,17,12.8,18,12.2,19
		c0.6,1,1.2,1.9,1.8,2.8c1.2,0,2.3-0.1,3.5-0.2c0.7-1,1.4-2,2-3C18.8,17.7,18.2,16.7,17.6,15.7"/>
	<path class="st1" d="M9.6,10.4C9.5,9.7,9.3,9,9.3,8.1c1-1,1.2-1.4,1.6-1.8c0.4,0,0.9,0.1,1.4,0.1C12.5,7,12.6,7.5,13,8.4
		c-0.3,0.6-0.6,1.2-1.2,2.2C11,10.5,10.3,10.4,9.6,10.4 M9.1,11c0.4,0.1,3,0.2,3,0.2c0,0,1.5-2.8,1.5-2.8c-0.4-0.8-0.7-1.7-0.9-2.5
		c-0.6,0-1.9-0.1-1.9-0.1L8.7,8C8.8,9.9,9.1,11,9.1,11"/>
	<path class="st1" d="M9.5,23.8c-0.5-0.6-1-1.1-1.6-1.9c0.2-0.5,0.4-1,0.9-1.9c0.9,0.1,1.8,0.2,2.7,0.2c0.5,0.7,0.8,1.2,1.4,2.1
		c-0.8,1.1-0.9,1.4-1.1,1.7C11,23.9,10.2,23.9,9.5,23.8 M13.7,22.3c-0.6-0.9-1.2-1.8-1.8-2.8c-1.2,0-2.3-0.1-3.5-0.3
		c-0.4,0.8-0.9,1.7-1.2,2.6c0.7,0.8,1.3,1.7,2.1,2.4c1,0.1,1.9,0.2,2.9,0.2C12.6,23.8,13.2,23,13.7,22.3"/>
	<path class="st1" d="M4.4,10.5c0.5-0.5,1-1.1,1.9-1.9c0.5,0.1,1,0.3,1.5,0.4c0,0.7,0.1,1.4,0.3,2.4c-0.6,0.8-1.1,1.4-1.6,2.2
		c-0.7-0.1-1.4-0.3-2-0.5C4.4,12.3,4.3,11.5,4.4,10.5 M3.9,13.6c0.9,0.3,1.8,0.5,2.7,0.7c0.7-0.9,1.4-1.9,2.1-2.8
		c-0.2-1-0.3-2-0.3-3C7.7,8.3,7,8.1,6.3,7.9c-0.8,0.8-1.6,1.5-2.4,2.3C3.8,11.4,3.8,12.5,3.9,13.6"/>
	<path class="st1" d="M8.5,25.5c-0.4-0.1-0.8-0.2-1.2-0.3c-0.6-0.4-1.3-0.9-2.1-1.7C5.1,23,5,22.8,5,22.3c0.5,0.2,1.2,0.3,1.8,0.4
		c0.5,0.5,1,1.2,1.7,1.9C8.5,24.9,8.5,25.2,8.5,25.5 M9.2,24.5c-0.7-0.7-1.5-1.5-2.1-2.3c-0.9-0.2-1.8-0.4-2.6-0.7
		c0,0.8,0.1,1.4,0.4,2.1c0.3,0.3,2,1.6,2.5,2c0.5,0.3,1.3,0.4,1.9,0.5C9.1,25.5,9.1,25,9.2,24.5"/>
	<path class="st1" d="M25.3,14.3c0.2,0.6,0.3,1.2,0.4,1.9c-0.4,2.1-0.8,2.7-0.8,2.8c-0.2,0.2-0.6,0.4-0.9,0.6
		c-0.1-0.5-0.1-1.1-0.4-1.9c0.3-0.8,0.6-1.7,0.8-2.9C24.7,14.7,25,14.5,25.3,14.3 M26.1,16.2c-0.1-1-0.3-1.8-0.6-2.8
		c-0.5,0.4-1,0.8-1.6,1c-0.2,1.2-0.6,2.3-0.9,3.5c0.1,0,0.5,2.2,0.5,2.6c0.6-0.3,1.2-0.5,1.7-1C25.5,18.5,26,17.2,26.1,16.2"/>
	<path class="st1" d="M15.9,25.8c-0.6,0.1-1.2,0.1-1.8,0.1c-0.3-0.4-0.6-0.7-0.9-1.1c0.4-0.5,0.8-1,1.2-1.5c0.9,0,1.7-0.1,2.6-0.1
		c0.2,0.5,0.5,0.9,0.6,1.4C16.4,25.4,16,25.7,15.9,25.8 M18.2,24.6c-0.3-0.7-0.5-1.4-0.9-2.1c-1.1,0.1-2.2,0.2-3.3,0.2
		c-0.5,0.7-1.1,1.4-1.6,2.1c0.2,0.3,0.5,0.5,0.7,0.8c0.2,0.2,0.4,0.5,0.7,0.7c0.8,0,1.5-0.1,2.3-0.1C16.8,25.7,17.5,25.2,18.2,24.6"
		/>
	<path class="st1" d="M19.2,25.6c-1,0.7-2,1-2.7,1.1c-0.2,0-0.2-0.1-0.2-0.2c0.5-0.3,1.3-0.9,2.1-1.5c0.5-0.1,1-0.2,1.4-0.3
		C19.6,25.1,19.5,25.4,19.2,25.6 M20.6,24.1c-1,0.4-2.4,0.6-2.4,0.6s-2.2,2-2.5,2.1l0.1,0.3c1.1-0.2,2.4-0.5,3.6-1.3
		C19.6,25.6,20.6,24.5,20.6,24.1"/>
	<path class="st1" d="M21.1,24.3c0.1-0.1,0.1-0.3,0.2-0.4c0.6-0.6,1.2-1.2,1.9-2.1c0.2-0.1,0.4-0.2,0.6-0.3
		C23.2,22.5,22.1,23.5,21.1,24.3 M23.2,21.3l-2.1,2.5c0,0.1-0.7,1.4-0.7,1.4c2.1-1.3,3.5-2.9,4.4-5.2C24.5,20.5,23.9,21,23.2,21.3"
		/>
	<path class="st1" d="M19.1,23.6c-0.1-0.4-0.3-0.8-0.6-1.5c0.5-0.7,1-1.4,1.6-2.3c0.8-0.1,1.5-0.3,2.2-0.5c0.2,0.6,0.3,1.1,0.4,1.8
		c-1.2,1.6-1.6,2.1-1.7,2.2C20.4,23.3,19.7,23.4,19.1,23.6 M23.2,21c-0.1-0.9-0.2-1.7-0.5-2.5c-1,0.3-2,0.5-3,0.7
		c-0.6,1-1.3,2-2,2.9c0.4,0.7,0.7,1.4,0.9,2.1c0.8-0.1,1.6-0.3,2.3-0.5L23.2,21z"/>
</g>
</svg>
